ffmpeg started on 2026-04-01 at 10:29:17
Report written to "D:\Convert\FFMetrics\reports\psnr_report-6.txt"
Log level: 32
Command line:
ffmpeg -hide_banner -nostdin -r 24000/1001 -i "F:\\Convert\\files\\[DC] Make Heroine ga Oosugiru - 07_Telegram_HEVC(252).mkv" -r 24000/1001 -i "F:\\Convert\\files\\[DC] Make Heroine ga Oosugiru - 07_Telegram.mp4" -lavfi "[0:v]settb=AVTB,setpts=PTS-STARTPTS,format=pix_fmts=yuv420p10le,fps=24000/1001,scale=1920:1080:flags=lanczos:param0=3:out_range=limited:out_color_matrix=bt709:out_chroma_loc=left,setsar=1/1,setdar=(1920/1080)*(1/1),colorspace=format=yuv420p10:range=tv:primaries=bt709:trc=bt709:space=bt709:fast=0[main];[1:v]settb=AVTB,setpts=PTS-STARTPTS,format=pix_fmts=yuv420p,fps=24000/1001,scale=1920:1080:flags=lanczos:param0=3:out_range=limited:out_color_matrix=bt709:out_chroma_loc=left,setsar=1/1,setdar=(1920/1080)*(1/1),colorspace=format=yuv420p:range=tv:primaries=bt709:trc=bt709:space=bt709:fast=0[ref];[main][ref]psnr=eof_action=endall:stats_file='D\\:/Convert/FFMetrics/logs/psnr_logfile-6.txt'" -f null -
Input #0, matroska,webm, from 'F:\Convert\files\[DC] Make Heroine ga Oosugiru - 07_Telegram_HEVC(252).mkv':
  Metadata:
    COMPATIBLE_BRANDS: isomiso2avc1mp41
    MAJOR_BRAND     : isom
    MINOR_VERSION   : 512
    ENCODER         : Lavf61.7.100
  Duration: 00:24:06.79, start: -0.021000, bitrate: 940 kb/s
  Stream #0:0: Video: hevc (Main 10), yuv420p10le(tv, bt709, progressive), 1920x1080 [SAR 1:1 DAR 16:9], 23.98 fps, 23.98 tbr, 1k tbn (default)
      Metadata:
        HANDLER_NAME    : VideoHandler
        VENDOR_ID       : [0][0][0][0]
        ENCODER         : Lavc61.19.100 libx265
        BPS             : 743840
        DURATION        : 00:24:06.569708333
        NUMBER_OF_FRAMES: 34683
        NUMBER_OF_BYTES : 134502019
        _STATISTICS_WRITING_APP: mkvpropedit v94.0 ('Initiate') 64-bit
        _STATISTICS_WRITING_DATE_UTC: 2026-03-30 08:44:12
        _STATISTICS_TAGS: BPS DURATION NUMBER_OF_FRAMES NUMBER_OF_BYTES
  Stream #0:1: Audio: aac (LC), 48000 Hz, stereo, fltp (default)
      Metadata:
        HANDLER_NAME    : SoundHandler
        VENDOR_ID       : [0][0][0][0]
        ENCODER         : Lavc61.19.100 aac
        BPS             : 193194
        DURATION        : 00:24:06.784000000
        NUMBER_OF_FRAMES: 67819
        NUMBER_OF_BYTES : 34938755
        _STATISTICS_WRITING_APP: mkvpropedit v94.0 ('Initiate') 64-bit
        _STATISTICS_WRITING_DATE_UTC: 2026-03-30 08:44:12
        _STATISTICS_TAGS: BPS DURATION NUMBER_OF_FRAMES NUMBER_OF_BYTES
Input #1, mov,mp4,m4a,3gp,3g2,mj2, from 'F:\Convert\files\[DC] Make Heroine ga Oosugiru - 07_Telegram.mp4':
  Metadata:
    major_brand     : isom
    minor_version   : 512
    compatible_brands: isomiso2avc1mp41
    encoder         : Lavf60.16.100
  Duration: 00:24:06.74, start: 0.000000, bitrate: 3764 kb/s
  Stream #1:0[0x1](und): Video: h264 (High) (avc1 / 0x31637661), yuv420p(tv, bt709, progressive), 1920x1080 [SAR 1:1 DAR 16:9], 3616 kb/s, 23.98 fps, 23.98 tbr, 24k tbn (default)
      Metadata:
        handler_name    : VideoHandler
        vendor_id       : [0][0][0][0]
        encoder         : Lavc60.31.102 h264_qsv
  Stream #1:1[0x2](und): Audio: aac (HE-AACv2) (mp4a / 0x6134706D), 48000 Hz, stereo, fltp, 144 kb/s (default)
      Metadata:
        handler_name    : SoundHandler
        vendor_id       : [0][0][0][0]
Stream mapping:
  Stream #0:0 (hevc) -> settb:default
  Stream #1:0 (h264) -> settb:default
  psnr:default -> Stream #0:0 (wrapped_avframe)
  Stream #0:1 -> #0:1 (aac (native) -> pcm_s16le (native))
Output #0, null, to 'pipe:':
  Metadata:
    COMPATIBLE_BRANDS: isomiso2avc1mp41
    MAJOR_BRAND     : isom
    MINOR_VERSION   : 512
    encoder         : Lavf61.7.100
  Stream #0:0: Video: wrapped_avframe, yuv420p10le(tv, bt709, progressive), 1920x1080 [SAR 1:1 DAR 16:9], q=2-31, 200 kb/s, 23.98 fps, 23.98 tbn
      Metadata:
        encoder         : Lavc61.19.100 wrapped_avframe
  Stream #0:1: Audio: pcm_s16le, 48000 Hz, stereo, s16, 1536 kb/s (default)
      Metadata:
        HANDLER_NAME    : SoundHandler
        VENDOR_ID       : [0][0][0][0]
        _STATISTICS_TAGS: BPS DURATION NUMBER_OF_FRAMES NUMBER_OF_BYTES
        BPS             : 193194
        DURATION        : 00:24:06.784000000
        NUMBER_OF_FRAMES: 67819
        NUMBER_OF_BYTES : 34938755
        _STATISTICS_WRITING_APP: mkvpropedit v94.0 ('Initiate') 64-bit
        _STATISTICS_WRITING_DATE_UTC: 2026-03-30 08:44:12
        encoder         : Lavc61.19.100 pcm_s16le
frame=  128 fps=0.0 q=-0.0 size=N/A time=00:00:05.33 bitrate=N/A speed=10.4x    frame=  316 fps=308 q=-0.0 size=N/A time=00:00:13.17 bitrate=N/A speed=12.8x    frame=  509 fps=328 q=-0.0 size=N/A time=00:00:21.22 bitrate=N/A speed=13.7x    frame=  703 fps=340 q=-0.0 size=N/A time=00:00:29.32 bitrate=N/A speed=14.2x    frame=  886 fps=344 q=-0.0 size=N/A time=00:00:36.95 bitrate=N/A speed=14.3x    frame= 1022 fps=331 q=-0.0 size=N/A time=00:00:42.62 bitrate=N/A speed=13.8x    frame= 1186 fps=328 q=-0.0 size=N/A time=00:00:49.46 bitrate=N/A speed=13.7x    frame= 1341 fps=323 q=-0.0 size=N/A time=00:00:55.93 bitrate=N/A speed=13.5x    frame= 1495 fps=321 q=-0.0 size=N/A time=00:01:02.35 bitrate=N/A speed=13.4x    frame= 1634 fps=316 q=-0.0 size=N/A time=00:01:08.15 bitrate=N/A speed=13.2x    frame= 1787 fps=314 q=-0.0 size=N/A time=00:01:14.53 bitrate=N/A speed=13.1x    frame= 1951 fps=314 q=-0.0 size=N/A time=00:01:21.37 bitrate=N/A speed=13.1x    frame= 2080 fps=310 q=-0.0 size=N/A time=00:01:26.75 bitrate=N/A speed=12.9x    frame= 2222 fps=307 q=-0.0 size=N/A time=00:01:32.67 bitrate=N/A speed=12.8x    frame= 2371 fps=306 q=-0.0 size=N/A time=00:01:38.89 bitrate=N/A speed=12.7x    frame= 2501 fps=302 q=-0.0 size=N/A time=00:01:44.31 bitrate=N/A speed=12.6x    frame= 2650 fps=302 q=-0.0 size=N/A time=00:01:50.52 bitrate=N/A speed=12.6x    frame= 2832 fps=304 q=-0.0 size=N/A time=00:01:58.11 bitrate=N/A speed=12.7x    frame= 3004 fps=306 q=-0.0 size=N/A time=00:02:05.29 bitrate=N/A speed=12.8x    frame= 3177 fps=308 q=-0.0 size=N/A time=00:02:12.50 bitrate=N/A speed=12.8x    frame= 3377 fps=311 q=-0.0 size=N/A time=00:02:20.84 bitrate=N/A speed=  13x    frame= 3574 fps=315 q=-0.0 size=N/A time=00:02:29.06 bitrate=N/A speed=13.1x    frame= 3766 fps=317 q=-0.0 size=N/A time=00:02:37.07 bitrate=N/A speed=13.2x    frame= 3959 fps=320 q=-0.0 size=N/A time=00:02:45.12 bitrate=N/A speed=13.3x    frame= 4149 fps=321 q=-0.0 size=N/A time=00:02:53.04 bitrate=N/A speed=13.4x    frame= 4340 fps=323 q=-0.0 size=N/A time=00:03:01.01 bitrate=N/A speed=13.5x    frame= 4525 fps=325 q=-0.0 size=N/A time=00:03:08.73 bitrate=N/A speed=13.5x    frame= 4719 fps=327 q=-0.0 size=N/A time=00:03:16.82 bitrate=N/A speed=13.6x    frame= 4919 fps=328 q=-0.0 size=N/A time=00:03:25.16 bitrate=N/A speed=13.7x    frame= 5112 fps=330 q=-0.0 size=N/A time=00:03:33.21 bitrate=N/A speed=13.8x    frame= 5299 fps=331 q=-0.0 size=N/A time=00:03:41.01 bitrate=N/A speed=13.8x    frame= 5494 fps=332 q=-0.0 size=N/A time=00:03:49.14 bitrate=N/A speed=13.9x    frame= 5684 fps=334 q=-0.0 size=N/A time=00:03:57.07 bitrate=N/A speed=13.9x    frame= 5867 fps=334 q=-0.0 size=N/A time=00:04:04.70 bitrate=N/A speed=13.9x    frame= 6041 fps=334 q=-0.0 size=N/A time=00:04:11.96 bitrate=N/A speed=  14x    frame= 6227 fps=335 q=-0.0 size=N/A time=00:04:19.71 bitrate=N/A speed=  14x    frame= 6418 fps=336 q=-0.0 size=N/A time=00:04:27.68 bitrate=N/A speed=  14x    frame= 6608 fps=337 q=-0.0 size=N/A time=00:04:35.60 bitrate=N/A speed=  14x    frame= 6801 fps=338 q=-0.0 size=N/A time=00:04:43.65 bitrate=N/A speed=14.1x    frame= 6990 fps=339 q=-0.0 size=N/A time=00:04:51.54 bitrate=N/A speed=14.1x    frame= 7172 fps=339 q=-0.0 size=N/A time=00:04:59.13 bitrate=N/A speed=14.1x    frame= 7362 fps=340 q=-0.0 size=N/A time=00:05:07.05 bitrate=N/A speed=14.2x    frame= 7548 fps=340 q=-0.0 size=N/A time=00:05:14.81 bitrate=N/A speed=14.2x    frame= 7729 fps=340 q=-0.0 size=N/A time=00:05:22.36 bitrate=N/A speed=14.2x    frame= 7913 fps=341 q=-0.0 size=N/A time=00:05:30.03 bitrate=N/A speed=14.2x    frame= 8110 fps=342 q=-0.0 size=N/A time=00:05:38.25 bitrate=N/A speed=14.2x    frame= 8296 fps=342 q=-0.0 size=N/A time=00:05:46.01 bitrate=N/A speed=14.3x    frame= 8490 fps=343 q=-0.0 size=N/A time=00:05:54.10 bitrate=N/A speed=14.3x    frame= 8672 fps=343 q=-0.0 size=N/A time=00:06:01.69 bitrate=N/A speed=14.3x    frame= 8852 fps=343 q=-0.0 size=N/A time=00:06:09.20 bitrate=N/A speed=14.3x    frame= 9045 fps=344 q=-0.0 size=N/A time=00:06:17.25 bitrate=N/A speed=14.3x    frame= 9242 fps=344 q=-0.0 size=N/A time=00:06:25.46 bitrate=N/A speed=14.4x    frame= 9429 fps=345 q=-0.0 size=N/A time=00:06:33.26 bitrate=N/A speed=14.4x    frame= 9615 fps=345 q=-0.0 size=N/A time=00:06:41.02 bitrate=N/A speed=14.4x    frame= 9807 fps=346 q=-0.0 size=N/A time=00:06:49.03 bitrate=N/A speed=14.4x    frame=10005 fps=346 q=-0.0 size=N/A time=00:06:57.29 bitrate=N/A speed=14.4x    frame=10190 fps=346 q=-0.0 size=N/A time=00:07:05.00 bitrate=N/A speed=14.5x    frame=10376 fps=347 q=-0.0 size=N/A time=00:07:12.76 bitrate=N/A speed=14.5x    frame=10562 fps=347 q=-0.0 size=N/A time=00:07:20.52 bitrate=N/A speed=14.5x    frame=10749 fps=347 q=-0.0 size=N/A time=00:07:28.32 bitrate=N/A speed=14.5x    frame=10945 fps=348 q=-0.0 size=N/A time=00:07:36.49 bitrate=N/A speed=14.5x    frame=11127 fps=348 q=-0.0 size=N/A time=00:07:44.08 bitrate=N/A speed=14.5x    frame=11316 fps=348 q=-0.0 size=N/A time=00:07:51.97 bitrate=N/A speed=14.5x    frame=11505 fps=348 q=-0.0 size=N/A time=00:07:59.85 bitrate=N/A speed=14.5x    frame=11700 fps=349 q=-0.0 size=N/A time=00:08:07.98 bitrate=N/A speed=14.6x    frame=11896 fps=349 q=-0.0 size=N/A time=00:08:16.16 bitrate=N/A speed=14.6x    frame=12091 fps=350 q=-0.0 size=N/A time=00:08:24.29 bitrate=N/A speed=14.6x    frame=12280 fps=350 q=-0.0 size=N/A time=00:08:32.17 bitrate=N/A speed=14.6x    frame=12463 fps=350 q=-0.0 size=N/A time=00:08:39.81 bitrate=N/A speed=14.6x    frame=12659 fps=351 q=-0.0 size=N/A time=00:08:47.98 bitrate=N/A speed=14.6x    frame=12852 fps=351 q=-0.0 size=N/A time=00:08:56.03 bitrate=N/A speed=14.6x    frame=13038 fps=351 q=-0.0 size=N/A time=00:09:03.79 bitrate=N/A speed=14.6x    frame=13221 fps=351 q=-0.0 size=N/A time=00:09:11.42 bitrate=N/A speed=14.6x    frame=13408 fps=351 q=-0.0 size=N/A time=00:09:19.22 bitrate=N/A speed=14.7x    frame=13600 fps=351 q=-0.0 size=N/A time=00:09:27.23 bitrate=N/A speed=14.7x    frame=13791 fps=352 q=-0.0 size=N/A time=00:09:35.19 bitrate=N/A speed=14.7x    frame=13982 fps=352 q=-0.0 size=N/A time=00:09:43.16 bitrate=N/A speed=14.7x    frame=14148 fps=352 q=-0.0 size=N/A time=00:09:50.08 bitrate=N/A speed=14.7x    frame=14348 fps=352 q=-0.0 size=N/A time=00:09:58.43 bitrate=N/A speed=14.7x    frame=14532 fps=352 q=-0.0 size=N/A time=00:10:06.10 bitrate=N/A speed=14.7x    frame=14715 fps=352 q=-0.0 size=N/A time=00:10:13.73 bitrate=N/A speed=14.7x    frame=14895 fps=352 q=-0.0 size=N/A time=00:10:21.24 bitrate=N/A speed=14.7x    frame=15084 fps=352 q=-0.0 size=N/A time=00:10:29.12 bitrate=N/A speed=14.7x    frame=15238 fps=352 q=-0.0 size=N/A time=00:10:35.55 bitrate=N/A speed=14.7x    frame=15427 fps=352 q=-0.0 size=N/A time=00:10:43.43 bitrate=N/A speed=14.7x    frame=15622 fps=352 q=-0.0 size=N/A time=00:10:51.56 bitrate=N/A speed=14.7x    frame=15807 fps=352 q=-0.0 size=N/A time=00:10:59.28 bitrate=N/A speed=14.7x    frame=15997 fps=352 q=-0.0 size=N/A time=00:11:07.20 bitrate=N/A speed=14.7x    frame=16194 fps=353 q=-0.0 size=N/A time=00:11:15.42 bitrate=N/A speed=14.7x    frame=16387 fps=353 q=-0.0 size=N/A time=00:11:23.47 bitrate=N/A speed=14.7x    frame=16580 fps=353 q=-0.0 size=N/A time=00:11:31.52 bitrate=N/A speed=14.7x    frame=16776 fps=353 q=-0.0 size=N/A time=00:11:39.69 bitrate=N/A speed=14.7x    frame=16966 fps=354 q=-0.0 size=N/A time=00:11:47.62 bitrate=N/A speed=14.8x    frame=17162 fps=354 q=-0.0 size=N/A time=00:11:55.79 bitrate=N/A speed=14.8x    frame=17350 fps=354 q=-0.0 size=N/A time=00:12:03.63 bitrate=N/A speed=14.8x    frame=17538 fps=354 q=-0.0 size=N/A time=00:12:11.48 bitrate=N/A speed=14.8x    frame=17721 fps=354 q=-0.0 size=N/A time=00:12:19.11 bitrate=N/A speed=14.8x    frame=17915 fps=354 q=-0.0 size=N/A time=00:12:27.20 bitrate=N/A speed=14.8x    frame=18107 fps=355 q=-0.0 size=N/A time=00:12:35.21 bitrate=N/A speed=14.8x    frame=18289 fps=355 q=-0.0 size=N/A time=00:12:42.80 bitrate=N/A speed=14.8x    frame=18474 fps=355 q=-0.0 size=N/A time=00:12:50.51 bitrate=N/A speed=14.8x    frame=18671 fps=355 q=-0.0 size=N/A time=00:12:58.73 bitrate=N/A speed=14.8x    frame=18850 fps=355 q=-0.0 size=N/A time=00:13:06.20 bitrate=N/A speed=14.8x    frame=19032 fps=355 q=-0.0 size=N/A time=00:13:13.79 bitrate=N/A speed=14.8x    frame=19231 fps=355 q=-0.0 size=N/A time=00:13:22.09 bitrate=N/A speed=14.8x    frame=19421 fps=355 q=-0.0 size=N/A time=00:13:30.01 bitrate=N/A speed=14.8x    frame=19612 fps=355 q=-0.0 size=N/A time=00:13:37.98 bitrate=N/A speed=14.8x    frame=19797 fps=355 q=-0.0 size=N/A time=00:13:45.69 bitrate=N/A speed=14.8x    frame=19990 fps=356 q=-0.0 size=N/A time=00:13:53.74 bitrate=N/A speed=14.8x    frame=20180 fps=356 q=-0.0 size=N/A time=00:14:01.67 bitrate=N/A speed=14.8x    frame=20368 fps=356 q=-0.0 size=N/A time=00:14:09.51 bitrate=N/A speed=14.8x    frame=20547 fps=356 q=-0.0 size=N/A time=00:14:16.98 bitrate=N/A speed=14.8x    frame=20731 fps=356 q=-0.0 size=N/A time=00:14:24.65 bitrate=N/A speed=14.8x    frame=20914 fps=356 q=-0.0 size=N/A time=00:14:32.28 bitrate=N/A speed=14.8x    frame=21110 fps=356 q=-0.0 size=N/A time=00:14:40.46 bitrate=N/A speed=14.8x    frame=21299 fps=356 q=-0.0 size=N/A time=00:14:48.34 bitrate=N/A speed=14.8x    frame=21487 fps=356 q=-0.0 size=N/A time=00:14:56.18 bitrate=N/A speed=14.9x    frame=21682 fps=356 q=-0.0 size=N/A time=00:15:04.32 bitrate=N/A speed=14.9x    frame=21872 fps=356 q=-0.0 size=N/A time=00:15:12.24 bitrate=N/A speed=14.9x    frame=22066 fps=356 q=-0.0 size=N/A time=00:15:20.33 bitrate=N/A speed=14.9x    frame=22254 fps=357 q=-0.0 size=N/A time=00:15:28.17 bitrate=N/A speed=14.9x    frame=22441 fps=357 q=-0.0 size=N/A time=00:15:35.97 bitrate=N/A speed=14.9x    frame=22637 fps=357 q=-0.0 size=N/A time=00:15:44.15 bitrate=N/A speed=14.9x    frame=22824 fps=357 q=-0.0 size=N/A time=00:15:51.95 bitrate=N/A speed=14.9x    frame=23009 fps=357 q=-0.0 size=N/A time=00:15:59.66 bitrate=N/A speed=14.9x    frame=23204 fps=357 q=-0.0 size=N/A time=00:16:07.80 bitrate=N/A speed=14.9x    frame=23395 fps=357 q=-0.0 size=N/A time=00:16:15.76 bitrate=N/A speed=14.9x    frame=23586 fps=357 q=-0.0 size=N/A time=00:16:23.73 bitrate=N/A speed=14.9x    frame=23782 fps=357 q=-0.0 size=N/A time=00:16:31.90 bitrate=N/A speed=14.9x    frame=23976 fps=358 q=-0.0 size=N/A time=00:16:39.99 bitrate=N/A speed=14.9x    frame=24159 fps=358 q=-0.0 size=N/A time=00:16:47.63 bitrate=N/A speed=14.9x    frame=24349 fps=358 q=-0.0 size=N/A time=00:16:55.55 bitrate=N/A speed=14.9x    frame=24543 fps=358 q=-0.0 size=N/A time=00:17:03.64 bitrate=N/A speed=14.9x    frame=24733 fps=358 q=-0.0 size=N/A time=00:17:11.57 bitrate=N/A speed=14.9x    frame=24918 fps=358 q=-0.0 size=N/A time=00:17:19.28 bitrate=N/A speed=14.9x    frame=25112 fps=358 q=-0.0 size=N/A time=00:17:27.37 bitrate=N/A speed=14.9x    frame=25300 fps=358 q=-0.0 size=N/A time=00:17:35.22 bitrate=N/A speed=14.9x    frame=25487 fps=358 q=-0.0 size=N/A time=00:17:43.02 bitrate=N/A speed=14.9x    frame=25676 fps=358 q=-0.0 size=N/A time=00:17:50.90 bitrate=N/A speed=14.9x    frame=25860 fps=358 q=-0.0 size=N/A time=00:17:58.57 bitrate=N/A speed=14.9x    frame=26051 fps=358 q=-0.0 size=N/A time=00:18:06.54 bitrate=N/A speed=14.9x    frame=26241 fps=358 q=-0.0 size=N/A time=00:18:14.46 bitrate=N/A speed=14.9x    frame=26435 fps=358 q=-0.0 size=N/A time=00:18:22.55 bitrate=N/A speed=14.9x    frame=26627 fps=359 q=-0.0 size=N/A time=00:18:30.56 bitrate=N/A speed=  15x    frame=26820 fps=359 q=-0.0 size=N/A time=00:18:38.61 bitrate=N/A speed=  15x    frame=27010 fps=359 q=-0.0 size=N/A time=00:18:46.54 bitrate=N/A speed=  15x    frame=27192 fps=359 q=-0.0 size=N/A time=00:18:54.13 bitrate=N/A speed=  15x    frame=27376 fps=359 q=-0.0 size=N/A time=00:19:01.80 bitrate=N/A speed=  15x    frame=27556 fps=359 q=-0.0 size=N/A time=00:19:09.31 bitrate=N/A speed=  15x    frame=27748 fps=359 q=-0.0 size=N/A time=00:19:17.32 bitrate=N/A speed=  15x    frame=27921 fps=359 q=-0.0 size=N/A time=00:19:24.53 bitrate=N/A speed=  15x    frame=28117 fps=359 q=-0.0 size=N/A time=00:19:32.71 bitrate=N/A speed=  15x    frame=28307 fps=359 q=-0.0 size=N/A time=00:19:40.63 bitrate=N/A speed=  15x    frame=28491 fps=359 q=-0.0 size=N/A time=00:19:48.31 bitrate=N/A speed=  15x    frame=28680 fps=359 q=-0.0 size=N/A time=00:19:56.19 bitrate=N/A speed=  15x    frame=28854 fps=359 q=-0.0 size=N/A time=00:20:03.45 bitrate=N/A speed=  15x    frame=29022 fps=358 q=-0.0 size=N/A time=00:20:10.45 bitrate=N/A speed=14.9x    frame=29203 fps=358 q=-0.0 size=N/A time=00:20:18.00 bitrate=N/A speed=14.9x    frame=29381 fps=358 q=-0.0 size=N/A time=00:20:25.43 bitrate=N/A speed=14.9x    frame=29550 fps=358 q=-0.0 size=N/A time=00:20:32.48 bitrate=N/A speed=14.9x    frame=29730 fps=358 q=-0.0 size=N/A time=00:20:39.98 bitrate=N/A speed=14.9x    frame=29904 fps=358 q=-0.0 size=N/A time=00:20:47.24 bitrate=N/A speed=14.9x    frame=30058 fps=357 q=-0.0 size=N/A time=00:20:53.66 bitrate=N/A speed=14.9x    frame=30242 fps=358 q=-0.0 size=N/A time=00:21:01.34 bitrate=N/A speed=14.9x    frame=30431 fps=358 q=-0.0 size=N/A time=00:21:09.22 bitrate=N/A speed=14.9x    frame=30628 fps=358 q=-0.0 size=N/A time=00:21:17.44 bitrate=N/A speed=14.9x    frame=30816 fps=358 q=-0.0 size=N/A time=00:21:25.28 bitrate=N/A speed=14.9x    frame=31000 fps=358 q=-0.0 size=N/A time=00:21:32.95 bitrate=N/A speed=14.9x    frame=31187 fps=358 q=-0.0 size=N/A time=00:21:40.75 bitrate=N/A speed=14.9x    frame=31381 fps=358 q=-0.0 size=N/A time=00:21:48.84 bitrate=N/A speed=14.9x    frame=31565 fps=358 q=-0.0 size=N/A time=00:21:56.52 bitrate=N/A speed=14.9x    frame=31754 fps=358 q=-0.0 size=N/A time=00:22:04.40 bitrate=N/A speed=14.9x    frame=31935 fps=358 q=-0.0 size=N/A time=00:22:11.95 bitrate=N/A speed=14.9x    frame=32120 fps=358 q=-0.0 size=N/A time=00:22:19.67 bitrate=N/A speed=14.9x    frame=32294 fps=358 q=-0.0 size=N/A time=00:22:26.92 bitrate=N/A speed=14.9x    frame=32486 fps=358 q=-0.0 size=N/A time=00:22:34.93 bitrate=N/A speed=14.9x    frame=32658 fps=358 q=-0.0 size=N/A time=00:22:42.11 bitrate=N/A speed=14.9x    frame=32811 fps=357 q=-0.0 size=N/A time=00:22:48.49 bitrate=N/A speed=14.9x    frame=32976 fps=357 q=-0.0 size=N/A time=00:22:55.37 bitrate=N/A speed=14.9x    frame=33158 fps=357 q=-0.0 size=N/A time=00:23:02.96 bitrate=N/A speed=14.9x    frame=33340 fps=357 q=-0.0 size=N/A time=00:23:10.55 bitrate=N/A speed=14.9x    frame=33502 fps=357 q=-0.0 size=N/A time=00:23:17.31 bitrate=N/A speed=14.9x    frame=33647 fps=356 q=-0.0 size=N/A time=00:23:23.36 bitrate=N/A speed=14.9x    frame=33782 fps=356 q=-0.0 size=N/A time=00:23:28.99 bitrate=N/A speed=14.8x    frame=33909 fps=355 q=-0.0 size=N/A time=00:23:34.28 bitrate=N/A speed=14.8x    frame=34072 fps=355 q=-0.0 size=N/A time=00:23:41.08 bitrate=N/A speed=14.8x    frame=34237 fps=355 q=-0.0 size=N/A time=00:23:47.96 bitrate=N/A speed=14.8x    frame=34367 fps=354 q=-0.0 size=N/A time=00:23:53.39 bitrate=N/A speed=14.8x    frame=34506 fps=354 q=-0.0 size=N/A time=00:23:59.18 bitrate=N/A speed=14.8x    [Parsed_psnr_16 @ 0000027e54ccf140] PSNR y:48.759983 u:50.298507 v:50.346117 average:49.220987 min:37.980787 max:inf
[out#0/null @ 0000027e4835dec0] video:14903KiB audio:271276KiB subtitle:0KiB other streams:0KiB global headers:0KiB muxing overhead: unknown
frame=34683 fps=354 q=-0.0 Lsize=N/A time=00:24:06.57 bitrate=N/A speed=14.8x    
